<svg width="14" height="15" viewBox="0 0 14 15" fill="none" xmlns="http://www.w3.org/2000/svg">
<path d="M10 4.5V3C10 2.60218 9.84196 2.22064 9.56066 1.93934C9.27936 1.65804 8.89782 1.5 8.5 1.5H2.5C2.10218 1.5 1.72064 1.65804 1.43934 1.93934C1.15804 2.22064 1 2.60218 1 3V9C1 9.39782 1.15804 9.77936 1.43934 10.0607C1.72064 10.342 2.10218 10.5 2.5 10.5H4M5.5 4.5H11.5C12.3284 4.5 13 5.17157 13 6V12C13 12.8284 12.3284 13.5 11.5 13.5H5.5C4.67157 13.5 4 12.8284 4 12V6C4 5.17157 4.67157 4.5 5.5 4.5Z" stroke="white" stroke-width="2" stroke-linecap="round" stroke-linejoin="round"/>
</svg>
