<svg xmlns="http://www.w3.org/2000/svg" width="71" height="71" viewBox="0 0 71 71"><g transform="translate(-1185.5 -23.5)"><g transform="translate(1200 21)"><g transform="translate(-14 3)"><circle cx="35" cy="35" r="35" fill="rgba(204,255,108,1)" stroke="rgba(255,255,255,0.5)" stroke-width="1"/><path d="M466.722,277.65c-15.184,4.75-26.359,16.971-22.652,30.657a15.734,15.734,0,0,0,11.554,11.376c7.032,1.321,16.648.865,26.535-11.559-14.039,15.449-37.617,10.781-37.489-2.238.131-13.3,13.132-21.672,20.927-23.173.466-1.98.831-3.127,1.126-5.062Z" transform="translate(-431.299 -261.83)" fill="#454e73"/><path d="M496.444,279a21.321,21.321,0,0,1-2.893,4.388,5.835,5.835,0,0,0-3.022-2.111l2.916-4.84A3.416,3.416,0,0,1,496.444,279Z" transform="translate(-448.772 -261.382)" fill="#ff5a5e"/><path d="M466.722,277.65c-15.184,4.75-26.359,16.971-22.652,30.657a15.734,15.734,0,0,0,11.554,11.376c7.032,1.321,16.648.865,26.535-11.559-14.039,15.449-37.617,10.781-37.489-2.238.131-13.3,13.132-21.672,20.927-23.173.466-1.98.831-3.127,1.126-5.062Z" transform="translate(-431.299 -261.83)" fill="#454e73"/><path d="M486.377,299.715c1.068.6,3.289,1.6,3.325,2.986a2.751,2.751,0,0,1-3.593,1.985c-1.253,1.386-2.56,2.7-4.665,2.889l-.12.007a3.228,3.228,0,0,1-2.73-.86,4.513,4.513,0,0,1-.943-2.745,21.126,21.126,0,0,1,.658-5.3c.2-.869.172-1.319-.1-1.358-.5.006-1.084,1.158-1.715,3.487a27.692,27.692,0,0,0-.93,7.286c.171,2.864,1.341,4.486,3.529,4.693,3.278.082,5.964-4.114,6.476-4.51a5.257,5.257,0,0,0,.931.116c2.314.2,4.116-2.93,4.425-5.463a6.559,6.559,0,0,0-2.883-6.467C487.507,297.553,486.8,298.755,486.377,299.715Z" transform="translate(-443.228 -268.799)" fill="#ff5a5e"/><path d="M51.608,53.877c-.01,0-.021,0-.031,0l-.381.239a9.3,9.3,0,0,0-1.3,3.244c-.181.672-.332,1.353-.46,2.041.129-.1.258-.208.384-.312.447-.369.909-.734,1.39-1.084.111-.814.277-1.735.506-2.774C51.91,54.366,51.885,53.916,51.608,53.877Zm-21.34,4.949a20.387,20.387,0,0,0-1.381,4.949,6.143,6.143,0,0,0,1.647,1.238,20.711,20.711,0,0,1,1.773-4.768A6.541,6.541,0,0,1,30.268,58.826Z" transform="translate(-16.631 -25.355)" fill="rgba(0,0,0,0.16)"/><path d="M509.523,279.117c-.386,1.043-6.819,4.892-12.41,8.64a16.72,16.72,0,0,0-4.333,3.629,13.478,13.478,0,0,1,4.835-7.177c3.07-2.507,10.77-6.752,14.325-10.01-1.229,2.473-1.421,2.887-2.416,4.919Z" transform="translate(-449.606 -260.551)" fill="#ff5a5e"/><path d="M471.892,294.868c-3.542.1-6.11,1.854-8.32,3.679-4.684,3.869-10.991,6.65-15.282,6.509-4.559-.149-7.187-2.6-7.389-6.67-.213-4.27,2.556-9.778,3.635-10.774a11.563,11.563,0,0,0-2.077,7.058c.318,3.968,3.787,5.408,7.344,5.471,3.946.07,8.631-2.162,12.58-4.868a51.328,51.328,0,0,1,6.376-3.856c2.208-1.079,3.862-1.634,4.779-1.4C473.044,291.4,472.7,292.866,471.892,294.868Z" transform="translate(-430.385 -265.52)" fill="#ff5a5e"/><path d="M489.041,281.272a21.319,21.319,0,0,1-2.893,4.388,5.835,5.835,0,0,0-3.022-2.111l2.916-4.84A3.416,3.416,0,0,1,489.041,281.272Z" transform="translate(-446.03 -262.222)" fill="#ff5a5e"/><path d="M453,320.853a21.318,21.318,0,0,1-2.893,4.388,5.835,5.835,0,0,0-3.022-2.111L450,318.29A3.416,3.416,0,0,1,453,320.853Z" transform="translate(-432.681 -276.883)" fill="#e46670"/><path d="M44.257,62.975a14.658,14.658,0,0,1-1.622.29c-.05,1.474-.092,3.124-.119,4.715.535-.108,1.084-.245,1.644-.409C44.168,66.239,44.208,64.621,44.257,62.975Z" transform="translate(-21.68 -28.724)" fill="rgba(0,0,0,0.16)"/><path d="M504.306,298.1l.629-1.4c2.581,3.431.5,8.614-.726,10.195C506.2,302.286,505.789,300.814,504.306,298.1Z" transform="translate(-453.84 -268.886)" fill="#454e73"/><path d="M492.592,308.744a10.83,10.83,0,0,0-2.549.807c-2.342,1.477-5.236,3.437-7.561,4.954-5.5,3.588-10.488,5.052-15.242,5.2a10.625,10.625,0,0,1-5.625-1.221c-2.1-1.261-2.965-3.162-3.176-5.823-.166-2.09.06-11.183.255-13.8.482-1.219,1.043-3.664,1.706-4.983.105-.209-.577,13.465-.266,15.6a6.087,6.087,0,0,0,3.666,4.974c5.3,1.934,13.257-.25,18.328-3.229,3.449-2.056,9.558-6.6,12.143-7.129C493.649,305.992,493.39,306.645,492.592,308.744Z" transform="translate(-436.865 -267.842)" fill="#454e73"/><path d="M500.945,323.754c-3.728,8.57-9.215,9.642-14.63,12.849,9.106-3.444,8.508-.935,11.029-3.092,2.786-2.384,3.729-5.9,4.884-11.653C501.437,322.086,501.528,322.414,500.945,323.754Z" transform="translate(-447.211 -278.205)" fill="#454e73"/><path d="M472.748,268.8a21.319,21.319,0,0,1-2.893,4.388,5.835,5.835,0,0,0-3.022-2.111l2.916-4.84A3.415,3.415,0,0,1,472.748,268.8Z" transform="translate(-439.995 -257.604)" fill="#454e73"/><path d="M453,320.853a21.318,21.318,0,0,1-2.893,4.388,5.835,5.835,0,0,0-3.022-2.111L450,318.29A3.416,3.416,0,0,1,453,320.853Z" transform="translate(-432.681 -276.883)" fill="#ff5a5e"/><path d="M492.8,300.156a22.08,22.08,0,0,1,2.529-2.468l.646.7A22.285,22.285,0,0,0,492.8,300.156Z" transform="translate(-449.613 -269.252)" fill="rgba(0,0,0,0.16)" fill-rule="evenodd"/></g></g></g></svg>